<?xml version="1.0" encoding="iso-8859-1"?>
<!-- Generator: Adobe Illustrator 16.0.0, SVG Export Plug-In . SVG Version: 6.00 Build 0)  -->
<!DOCTYPE svg PUBLIC "-//W3C//DTD SVG 1.1//EN" "http://www.w3.org/Graphics/SVG/1.1/DTD/svg11.dtd">
<svg version="1.1" id="Capa_1" xmlns="http://www.w3.org/2000/svg" xmlns:xlink="http://www.w3.org/1999/xlink" x="0px" y="0px"
	 width="496.926px" height="496.926px" viewBox="0 0 496.926 496.926" style="enable-background:new 0 0 496.926 496.926;"
	 xml:space="preserve">
<g>
	<g>
		<path d="M227.831,233.153c-17.891,32.025-36.395,65.14-44.667,77.982c-6.072,9.438-28.018,41.875-98.063,142.75
			c-5.737-1.33-11.915,1.004-15.673,6.473c-2.228,3.242-3.05,7.145-2.333,11.008c0.717,3.854,2.907,7.199,6.139,9.428l19.699,13.541
			c2.467,1.691,5.345,2.592,8.329,2.592h0.01c4.838,0,9.362-2.383,12.431-6.848c3.471-5.049,3.347-11.59,0.115-16.467
			c13.091-19.258,83.299-122.496,98.13-142.711c9.018-12.316,33.287-41.424,56.744-69.566
			c19.298-23.151,37.514-45.021,46.244-56.314c19.106-24.729,50.213-66.909,50.624-67.454l58.379-84.943
			c11.839-17.222,3.979-30.208-2.036-34.817L400.052,2.792C399.583,2.505,395.299,0,389.188,0c-5.871,0-14.487,2.343-22.156,13.512
			L308.558,98.58c-0.277,0.44-28.506,44.6-44.753,71.298C256.375,182.061,242.51,206.875,227.831,233.153z"/>
	</g>
</g>
<g>
</g>
<g>
</g>
<g>
</g>
<g>
</g>
<g>
</g>
<g>
</g>
<g>
</g>
<g>
</g>
<g>
</g>
<g>
</g>
<g>
</g>
<g>
</g>
<g>
</g>
<g>
</g>
<g>
</g>
</svg>
