<?xml version="1.0" encoding="utf-8"?>
<!-- Generator: Adobe Illustrator 25.0.0, SVG Export Plug-In . SVG Version: 6.00 Build 0)  -->
<svg version="1.1" id="svg2160" xmlns:svg="http://www.w3.org/2000/svg"
	 xmlns="http://www.w3.org/2000/svg" xmlns:xlink="http://www.w3.org/1999/xlink" x="0px" y="0px" viewBox="0 0 1024 731"
	 style="enable-background:new 0 0 1024 731;" xml:space="preserve">
<style type="text/css">
	.st0{fill-rule:evenodd;clip-rule:evenodd;fill:#FFF0CD;stroke:#816747;stroke-width:1.997;stroke-miterlimit:3.9945;}
	.st1{fill-rule:evenodd;clip-rule:evenodd;fill:#D9BB79;stroke:#816747;stroke-width:1.9973;stroke-miterlimit:3.9945;}
	.st2{fill:none;stroke:#816747;stroke-width:1.9973;stroke-miterlimit:3.9945;}
	.st3{fill-rule:evenodd;clip-rule:evenodd;fill:#FDD99B;stroke:#816747;stroke-width:3.9945;stroke-miterlimit:3.9945;}
	.st4{fill-rule:evenodd;clip-rule:evenodd;fill:#FDD99B;stroke:#816747;stroke-width:1.9973;stroke-miterlimit:3.9945;}
	.st5{fill-rule:evenodd;clip-rule:evenodd;fill:#816747;stroke:#816747;stroke-width:0.9986;stroke-miterlimit:3.9945;}
	.st6{fill:#FFFFFF;}
</style>
<g id="brain">
	<g id="brain-stem">
		<path id="medulla-oblongata" class="st0" d="M467.4,467.6c3.4,13.7,9.6,22.9,19.8,26.9c14.5,6.8,25.6,23.4,37.2,38.1
			c6.3-3.4,13-6.3,18.3-11.2l-55-66.4L467.4,467.6z"/>
		<g id="cerebellum">
			<path id="path2173" class="st1" d="M483.3,463.7c0,2.9,0.4,5.8,3.4,8.8c1,16.6,7.3,22,15.9,22c38.6,24.9,68,26.4,90.2,11.7
				c9.2-5.4,23.6-10.7,24.6-16.1c10.6-5.4,16.9-10.7,22.7-16.1c9.2-7.8,9.2-21.5,5.3-38.6C553.8,432.5,507.5,444.6,483.3,463.7z"/>
			<path id="path2463" class="st2" d="M589.5,439.8c-18.3,6.8-38.6,14.6-54.6,29.8"/>
			<path id="path2555" class="st2" d="M513.2,481.3c30.4,15.1,62.3,20,95.6,16.6"/>
			<path id="path2561" class="st2" d="M589.1,486.7c2.9,4.4,16.4,2.9,33.3,0.5"/>
			<path id="path2563" class="st2" d="M597.7,482.7c6.3,2,22.2-2,40.1-6.8"/>
			<path id="path2565" class="st2" d="M592.4,485.2c4.3,2.9,20.8,0.5,38.6-3.4"/>
			<path id="path2567" class="st2" d="M644.5,467.6c-19.8,8.8-34.8,13.7-42.5,12.7"/>
			<path id="path2569" class="st2" d="M607.4,476.9c10.6-0.5,24.6-6.3,38.6-12.2"/>
			<path id="path2571" class="st2" d="M614.2,473c10.6-2.5,21.8-6.8,32.8-11.7"/>
			<path id="path2573" class="st2" d="M647.5,457.4c-8.7,4.4-17.3,7.8-26.5,10.7"/>
			<path id="path2575" class="st2" d="M523.4,478.4c21.8,7.8,44.9,12.7,67.6,14.1"/>
			<path id="path2523" class="st2" d="M489.6,473c1.4,9.2,5.8,16.6,12.6,21"/>
			<path id="path2549" class="st2" d="M507.5,488.1c31.9,19,58.8,22.9,84,18.6"/>
			<path id="path2551" class="st2" d="M508.9,485.6c31.4,17.5,60.3,22,87.9,18.1"/>
			<path id="path2467" class="st2" d="M597.7,441.7c-16.4,5.4-33.8,12.2-50.2,21"/>
			<path id="path2553" class="st2" d="M510.8,483.2c33.8,16.6,64.2,21,93.2,17.5"/>
			<path id="path2557" class="st2" d="M518.6,479.3c32.4,15.7,63.7,16.1,95.1,15.1"/>
			<path id="path2559" class="st2" d="M583.2,489.1c3.4,4.4,15.5,4.4,34.2,1.5"/>
			<path id="path2525" class="st2" d="M502.2,493.9c4.3-4.9,8.2-10.7,12.6-14.6"/>
			<path id="path2547" class="st2" d="M505.5,489.6c19.8,15.1,46.8,20.5,76.8,22.4"/>
			<path id="path2545" class="st2" d="M504.1,492.5c16.4,11.7,41,20,69.5,22.4"/>
			<path id="path2465" class="st2" d="M537.4,463.7c5.8-4.4,11.6-8.8,17.3-13.2"/>
			<path id="path2497" class="st2" d="M518.1,479.3c6.7-5.8,9.2-13.7,8.7-23.9"/>
			<path id="path2529" class="st2" d="M544.1,478.4c15.5,2.5,30.4,4.9,45.8,7.8"/>
			<path id="path2527" class="st2" d="M636.8,454c-13.5,14.1-31.4,25.8-53.6,35.2c-18.8-1.5-37.7-7.8-56.4-11.7"/>
			<path id="path2521" class="st2" d="M496.3,473.5c-1,6.8,1,13.7,6.7,18.1"/>
			<path id="path2517" class="st2" d="M488.1,472.5l-1.9-8.7"/>
			<path id="path2515" class="st2" d="M491,472.5c-1.9-3.4-1.9-6.8-1.4-10.3"/>
			<path id="path2513" class="st2" d="M494.9,473c-1-4.4-1.4-8.8-1.4-13.2"/>
			<path id="path2511" class="st2" d="M496.9,473.5l1.9-17.1"/>
			<path id="path2519" class="st2" d="M501.2,474.4c-1,5.4,1.4,9.8,5.8,13.7"/>
			<path id="path2531" class="st2" d="M596.8,482.7c-14-2.5-27.5-4.9-41-6.8"/>
			<path id="path2533" class="st2" d="M568.3,473c12,2,22.2,3.4,33.8,6.8"/>
			<path id="path2535" class="st2" d="M577.5,470.6c10.6,0,20.8,2.5,29.9,6.3"/>
			<path id="path2509" class="st2" d="M499.7,474.4c0.4-5.8,1.9-11.2,3.4-16.6"/>
			<path id="path2537" class="st2" d="M591,467.1c7.3,0.9,15,2.9,22.2,6.3"/>
			<path id="path2507" class="st2" d="M502.2,474.9c2.4-5.4,3.4-11.7,5.3-16.6"/>
			<path id="path2501" class="st2" d="M510.3,478.9c4.9-6.3,8.7-13.7,10.6-22"/>
			<path id="path2499" class="st2" d="M514.7,478.9c4.9-6.3,8.2-13.7,8.7-22.4"/>
			<path id="path2503" class="st2" d="M507,477.8l11.1-20.5"/>
			<path id="path2505" class="st2" d="M504.1,476.9c2.9-6.3,4.9-13.7,8.7-18.6"/>
			<path id="path2539" class="st2" d="M619,469.5c-4.3-0.5-9.6,0-14.5,0"/>
			<path id="path2541" class="st2" d="M624.3,465.2c-9.6,2-18.3,2-25.6,0"/>
			<path id="path2543" class="st2" d="M605.4,463.2c4.3,0.9,13.5,0,22.7-1.5c6.7-2,13-4.4,19.3-7.4"/>
			<path id="path2495" class="st2" d="M523.9,478.4c4.3-5.8,6.7-13.7,7.7-22.9"/>
			<path id="path2493" class="st2" d="M528.2,476.9c4.3-7.4,6.3-14.1,7.3-21.5"/>
			<path id="path2491" class="st2" d="M540.3,454.4c-5.8,25.4-19.3,27.3-34.8,22.9c-6.3-4.9-12.6-4.9-18.8-4.9"/>
			<path id="path2471" class="st2" d="M646.5,440.3c-21.2,6.8-107.7,37.6-116.8,37.6 M529.2,475.9c36.2-15.1,74.8-26.9,111.5-37.6"
				/>
			<path id="path2469" class="st2" d="M608.9,442.2c-25.1,8.3-52.6,20-77.2,31.7"/>
			<path id="path2473" class="st2" d="M647.5,450.5c-22.2,8.3-95.6,27.3-113,29.3c38.1-12.7,75.3-22.9,112.5-34.7"/>
		</g>
	</g>
	<g id="cerebrum">
		<path id="path2179" class="st3" d="M427.8,212.3c-15-0.9-31.9,2-46.4,10.3c-7.3,0.5-15,4.4-21.2,7.4c-14,0.9-26.1,5.8-36.7,14.1
			c-9.2,2.9-18.8,6.3-27.1,13.7c-15.5,9.2-25.6,20-30.4,33.2c-10.2,3.4-15.5,11.2-15.5,22c-7.3,6.3-12,14.6-13,25.4
			c-3.9,8.3-3.4,16.6-1,24.9c-0.4,2.9-2.4,6.3,0,9.2c-2.4,5.4-1.4,10.7,1,16.1c1.4,0,1.9,6.3,3.9,7.4c1,14.1,4.3,23.4,8.7,30.3
			c4.9,7.8,9.6,14.6,17.3,16.6c7.7,15.7,39.6,14.6,78.2,9.2c3.4,5.4,6.7,9.2,10.2,13.2c5.3,11.2,14,18.1,24.6,22.4
			c8.7,7.8,19.3,13.2,39.1,5.4c18.8-0.9,33.8-5.4,38.6-20c4.9-0.5,11.1-2.9,21.2-7.8c7.3-1.5,13-5.4,18.3-9.8c5.3,3.9,16.4,2,27.5,0
			c17.3-0.9,29.5-3.4,35.2-8.3c8.2-2.5,16.4-4.9,22.7-9.8c14.5,4.9,28,6.8,39.1,0c32.4,3.4,57.9-3.4,64.7-38.6
			c5.3-5.8,3.9-14.6,1.4-23.4c5.3-8.8-1.9-16.1-9.2-23.9c-1-10.3-5.8-17.5-13-23.9c1-6.8-1.4-12.7-11.1-17.5
			c-3.9-11.7-10.6-19-18.8-24.4c0-12.2-10.2-20-25.1-25.8c-11.6-14.1-26.1-24.4-43-31.7c-6.7-5.4-13.5-5.8-20.3-4.9
			c-7.7-9.8-21.2-12.2-39.6-8.8c-4.9-3.4-10.2-3.4-15-3.4c-11.1-0.9-20.8-1.5-28.9-1.5C450.5,206.5,438.9,208.5,427.8,212.3z"/>
		<path id="path2181" class="st4" d="M289.3,267c-5.3,4.9-5.3,8.3-1.9,10.3"/>
		<path id="path2183" class="st4" d="M303.3,260.7c23.6-16.6,41-18.1,53.1-9.8"/>
		<path id="path2185" class="st4" d="M339.9,274.8c9.2-6.8,13-20,20.3-29.3c9.6-14.6,28-2.5,39.6-3.4"/>
		<path id="path2187" class="st4" d="M279.6,289.9c-5.8,6.8,1.4,12.7,1.4,19"/>
		<path id="path2189" class="st4" d="M261.3,310c8.2-4.4,6.3-14.1,14-21c5.3-6.8,22.7-7.4,28.9-16.6c6.7-10.3,15.5-13.7,25.6-11.7"
			/>
		<path id="path2191" class="st4" d="M322.1,269.9c5.3-5.4,9.2-10.7,12.6-16.1"/>
		<path id="path2193" class="st4" d="M355,270.9c5.3-3.9,7.7-8.8,7.3-14.1"/>
		<path id="path2195" class="st4" d="M349.7,237.7c3.9,1.5,9.2,0.5,17.3-5.4"/>
		<path id="path2197" class="st4" d="M360.7,230.4c-1.9,2.5-3.4,4.9-3.4,6.8"/>
		<path id="path2199" class="st4" d="M382,222.6c1,2,2.4,3.4,3.9,3.4"/>
		<path id="path2201" class="st4" d="M395.5,216.8c-1.9,2.5-3.4,4.4-4.3,6.3"/>
		<path id="path2203" class="st4" d="M438,216.3c-3.9,0.5-7.7-0.5-11.6-3.9"/>
		<path id="path2205" class="st4" d="M444.7,245.5c-4.9-0.9-8.7-2.9-6.7-14.1c0.4-9.8-7.3-12.7-20.8-11.7c-12.6,0.9-24.1,2-29.5,4.9
			c-4.3,4.4-9.2,8.8-15,13.7"/>
		<path id="path2207" class="st4" d="M389.7,228.5c-3.4,3.4-4.3,7.4-3.4,11.2"/>
		<path id="path2209" class="st4" d="M425.4,225.1c-4.9,8.3-11.6,15.7-16.4,20c-10.2,10.7-16.9,22.4-6.3,35.2"/>
		<path id="path2211" class="st4" d="M396.9,267.5c-5.3,0.5-9.2-2.9-12.6-7.8c-2.4-4.9-9.2-4.9-12-14.1"/>
		<path id="path2213" class="st4" d="M436.5,248c-23.6,0.9-23.2,16.1-34.8,21.5"/>
		<path id="path2215" class="st4" d="M451.9,271.9c1.9-7.8-3.4-10.7-15.5-10.3c-5.8,0.5-11.6,0.5-15.9-2"/>
		<path id="path2217" class="st4" d="M439.9,273.9c-12.6,4.4-24.6,5.8-37.2,6.8c-5.8-0.5-14,18.6-15,24.9"/>
		<path id="path2219" class="st4" d="M240.5,343.2c3.4-5.4,6.7-8.3,11.1-9.8"/>
		<path id="path2221" class="st4" d="M251.6,336.8c-1.9-8.3,13-10.7,17.3-15.7c2.9-2.5,5.3-11.7,20.3-15.1
			c8.2-2.9,15-11.7,24.6-20.5c3.9-4.4,11.1-6.3,19.3-6.8"/>
		<path id="path2223" class="st4" d="M319.2,266.6c-4.3,5.8-7.7,13.2-2.9,16.6"/>
		<path id="path2225" class="st4" d="M299,300.2c-1,5.8-1,11.7-0.4,17.1"/>
		<path id="path2227" class="st4" d="M313.4,310.5c-3.4,5.4-9.2,11.7-6.7,19"/>
		<path id="path2229" class="st4" d="M301.8,327.5c8.7,2.5,13.5,11.2,19.8,13.7"/>
		<path id="path2231" class="st4" d="M306.2,322.6c-2.9-4.9-7.3-7.4-13-2.9c-8.2,4.9-15.9,10.3-24.1,15.1
			c-7.7,6.8-10.2,13.7-6.7,20.5"/>
		<path id="path2233" class="st4" d="M241,356.8c6.3-7.4,13-10.7,19.8-10.3"/>
		<path id="path2235" class="st4" d="M251.6,348.5c-1.4-1.5-3.9-2-6.7-2.5"/>
		<path id="path2237" class="st4" d="M267.1,340.7c11.6-6.3,17.3-4.9,19.3,1.5c4.9,26.4,12.6,31.2,19.8,38.1"/>
		<path id="path2239" class="st4" d="M292.7,330.9c-1.9,2-4.9,4.9-7.7,8.3"/>
		<path id="path2241" class="st4" d="M316.8,315.9c8.7-7.8,20.8-16.1-1.9-23.9"/>
		<path id="path2243" class="st4" d="M327.9,303.1c14-0.5,21.8,2.5,22.2,10.3c0.4,5.4-2.9,10.7-2.4,16.6"/>
		<path id="path2245" class="st4" d="M386.3,373.4c12-11.7,19.3-22.4,11.1-41c-2.9-9.2-6.3-18.1-9.6-26.9c-15,0-28,2.5-37.7,7.4"/>
		<path id="path2247" class="st4" d="M373.3,319.7c-7.3,6.8-22.7,11.2-21.8,23.4c0.4,22.9,8.7,27.8,14,33.2
			c1.9,1.5,3.9,7.4,8.7,13.2"/>
		<path id="path2249" class="st4" d="M340.9,257.8c-2.4,9.2-12.6,19-3.4,29.8c3.4-2.5,12.6-2.5,16.9-3.4c7.7-4.9,28.5,3.4,36.7-2.5"
			/>
		<path id="path2251" class="st4" d="M427.8,316.3c3.9-14.6-3.4-23.4-17.3-27.8"/>
		<path id="path2253" class="st4" d="M436,353.9c-6.7-0.9-21.2-11.2-19.3-21.5c-1.4-12.2-8.7-16.6-9.2-21.5c-1-2.5,2.4-8.3-0.4-11.7
			"/>
		<path id="path2255" class="st4" d="M366,376.9c3.9-6.3,3.9-12.2-5.8-19"/>
		<path id="path2257" class="st4" d="M334.6,319.2c0.4,6.8,1,13.2,3.9,20"/>
		<path id="path2259" class="st4" d="M351.5,343.2c-7.7-2.5-14-5.8-16.4-0.9c-2.4,2-9.2,4.9-7.3,13.7c-0.4,3.9-14.5,5.8-19.8,8.3"/>
		<path id="path2261" class="st4" d="M318.2,365.1c-4.3,3.4-2.9,10.3-4.9,15.1c1,10.3,12.6,12.2,24.6,13.7"/>
		<path id="path2263" class="st4" d="M263.7,363.7c2.9,2.9,8.2,5.4,19.8,6.8c4.9,0.9,4.3,4.4,15.5,7.8c4.3,0.5,9.6,0.9,14.5,2"/>
		<path id="path2265" class="st4" d="M270.9,349c-2.9,2.9-9.2,5.4-9.6,9.2c-1,3.9-3.9,7.8-6.3,11.7c-3.9,7.4-6.3,13.2-5.8,18.1
			c0.4,10.3,11.6,15.7,17.3,22"/>
		<path id="path2267" class="st4" d="M240,366.1c-1.4-0.9-2.4-2-3.4-2.9"/>
		<path id="path2269" class="st4" d="M251.2,361.7c-3.4,3.4-6.7,6.8-9.2,11.2c-1.9,5.4-1.4,9.8-2.4,19"/>
		<path id="path2271" class="st4" d="M242,373.9c0-1.5-1-2.5-1.9-3.4"/>
		<path id="path2273" class="st4" d="M242,395.9c1-2.9,5.3-5.8,2.9-9.2"/>
		<path id="path2275" class="st4" d="M251.2,426.6c1-2,0.4-4.4,1.4-5.4"/>
		<path id="path2277" class="st4" d="M267.6,442.8c2.9-4.9,3.4-7.8,1.4-8.3"/>
		<path id="path2279" class="st4" d="M272.4,436.3l-2.4-1.5"/>
		<path id="path2281" class="st4" d="M259.3,404.2c-4.9,9.8,0.4,16.6,13.5,21"/>
		<path id="path2283" class="st4" d="M257.9,377.3c10.6,5.8,21.8,18.1,31.4,21.5c10.6,3.9,26.1,17.5,35.2,11.2"/>
		<path id="path2285" class="st4" d="M338.1,402.7c-7.3,1.5-15.9,7.4-15.9,11.2c0.4,6.8,21.8,11.7,30.4,9.8"/>
		<path id="path2287" class="st4" d="M267.6,414.9c3.4,2.9,8.2,3.9,17.3-0.5c9.6-2.9,13,0.5,19.8,2.5"/>
		<path id="path2289" class="st4" d="M323,415.9c-11.6-0.9-17.3-0.5-21.2,3.4c-6.7,4.4-13.5,3.4-15.9,3.9
			c-2.9,0.9-11.1,9.2-22.7,3.4"/>
		<path id="path2291" class="st4" d="M291.7,452c15.9,0.9,32.8,0.5,50.2-2"/>
		<path id="path2293" class="st4" d="M310,432.5c-3.9-0.9-5.8-2.9-5.8-6.3c-0.4,6.8-4.3,8.3-7.3,11.2c-3.4,2.5-2.9,6.3-5.8,9.8"/>
		<path id="path2295" class="st4" d="M327.4,423.2c-9.6,0-18.8-0.5-25.6-3.9"/>
		<path id="path2297" class="st4" d="M322.1,423.2c1.4,8.3,12.6,9.2,18.3,12.2"/>
		<path id="path2299" class="st4" d="M318.2,430.5c1-2,3.9-2,5.8-3.4"/>
		<path id="path2301" class="st4" d="M331.8,429.1c2.4-2,5.3-2.9,7.3-5.4"/>
		<path id="path2303" class="st4" d="M345.8,429.6c-4.3-7.4,9.2-9.8,12.6-17.5"/>
		<path id="path2305" class="st4" d="M344.8,383.2c7.7,6.3,18.8,9.8,25.6,11.7"/>
		<path id="path2307" class="st4" d="M337.5,413.4c14,0,26.5-9.2,28.9-20c0.4-0.9,3.9-1.5,5.8-2"/>
		<path id="path2309" class="st4" d="M457.8,215.8c2.4-2.5,5.8-4.9,11.1-6.3"/>
		<path id="path2311" class="st4" d="M466.4,220.6c-12.6,0-23.2,2-28.5,11.2"/>
		<path id="path2313" class="st4" d="M453.4,229.4c2.9,2,4.9,3.9,4.9,6.3"/>
		<path id="path2315" class="st4" d="M592,362.7c1.9-22.4-41-28.8-62.3,8.3c-2.9,7.8-28.9,4.9-42.5,8.8c-12,4.9-24.1,11.7-36.2,19
			c-4.9,7.8-21.8-4.9-31.4-3.9c-31.4,3.4-31.9,50.7-1,58.5"/>
		<path id="path2317" class="st4" d="M476.1,344.6c0.4,9.8-10.2,28.8,5.8,37.6"/>
		<path id="path2319" class="st4" d="M446.6,365.1c5.3-2,6.7-10.3,10.2-14.6"/>
		<path id="path2321" class="st4" d="M436,377.3c-2.4,5.4,0.4,7.4,5.8,7.8"/>
		<path id="path2323" class="st4" d="M456.3,468.6c18.8-17.1,15.9-47.8-13.5-45.9c-10.2,0.9-17.3-1.5-22.2-6.3"/>
		<path id="path2325" class="st4" d="M470.8,415.9c6.7,12.2,13.5,9.2,21.8,9.2c14.5-0.5,22.7-15.1,12.6-30.7"/>
		<path id="path2327" class="st4" d="M480.9,425.1c-6.3,2-11.1,4.9-14.5,8.8"/>
		<path id="path2329" class="st4" d="M455.3,435.9c-5.8,2-11.6,8.3-18.3,12.7c-5.8,8.8-14,12.2-18.3,17.1
			c-4.9,7.4-7.3,22.4-34.8,14.1"/>
		<path id="path2331" class="st4" d="M455.8,473.5c-13.5,7.8-35.2,0.9-38.1,4.4"/>
		<path id="path2333" class="st4" d="M491,405.6c-4.9-1.5-7.7-8.3-10.2-11.7"/>
		<path id="path2335" class="st4" d="M406.5,385.6c10.6,5.8,19.8,4.4,28.9-2.9"/>
		<path id="path2337" class="st4" d="M419.1,389c-3.9,5.8-8.2,8.3-13.5,7.8c-5.8-0.9-14,5.4-23.6,13.2c-7.7,6.3-10.6,13.2-12.6,20.5
			c-1.4,8.8-2.9,12.7-4.9,16.1"/>
		<path id="path2339" class="st4" d="M375.2,400.7c-1,5.8,1,9.8,4.9,11.2"/>
		<path id="path2341" class="st4" d="M368.9,471.5c-4.9-1.5-10.6-6.3-14.5-7.8"/>
		<path id="path2343" class="st4" d="M389.2,449.5c-18.3,8.8-22.2,22.4-8.2,38.6"/>
		<path id="path2345" class="st4" d="M378.1,430.5c-1,6.3,3.4,10.7,7.7,14.6c3.9,2,3.9,7.4,4.9,8.8c5.8,8.3,6.7,13.7,7.3,18.6"/>
		<path id="path2347" class="st4" d="M512.3,359.8c6.7-7.8,18.8-1.5,28-2.5"/>
		<path id="path2349" class="st4" d="M488.6,367c5.8-4.9,8.2-11.2,6.3-20"/>
		<path id="path2351" class="st4" d="M500.2,363.2c-1.9-1.5-3.9-2.9-5.3-4.9"/>
		<path id="path2353" class="st4" d="M497.8,455.4c-1.9-4.9-0.4-9.8,4.3-14.1"/>
		<path id="path2355" class="st4" d="M488.6,452.5c1.4-2.5,6.3-2.9,9.2-4.4"/>
		<path id="path2357" class="st4" d="M525.8,433.4c-1.4,9.2,4.9,13.7,18.3,14.1"/>
		<path id="path2359" class="st4" d="M521.5,448.6c2.4-9.8-3.9-19-16.4-28.3"/>
		<path id="path2361" class="st4" d="M521.9,442.8c1.4-0.9,2.9-2,4.3-2.9"/>
		<path id="path2363" class="st4" d="M547,413c-7.3-1.5-13-4.4-13-12.2c-1.4-6.8-10.2-13.7-6.3-27.3"/>
		<path id="path2365" class="st4" d="M512.8,419.3c5.8,5.8,17.3-1.5,28-1.5c26.1-0.9,32.8,13.2,20.3,28.8"/>
		<path id="path2367" class="st4" d="M566.9,434.9c12.6-0.5,21.2-5.4,26.5-15.7"/>
		<path id="path2369" class="st4" d="M583.2,437.8l-4.3-4.9"/>
		<path id="path2371" class="st4" d="M602.6,432c7.7,0,14.5,1.5,19.8,5.8"/>
		<path id="path2373" class="st4" d="M618,429.1c-2.4,1.5-4.9,2.5-7.3,3.4"/>
		<path id="path2375" class="st4" d="M630.6,432.5c-1.4-8.3,3.9-12.2,4.3-17.1"/>
		<path id="path2377" class="st4" d="M543.1,381.7c3.9,3.4,8.7,6.3,7.7,10.3c1.4,8.3,11.6,9.2,17.3,10.3c11.6,4.9,22.2,10.3,15.9,20
			"/>
		<path id="path2379" class="st4" d="M482.4,336.3c-6.3-2-12-5.8-17.9-12.7"/>
		<path id="path2381" class="st4" d="M501.2,259.2c-4.3,2.9-9.2,8.8-15.9,13.2c-6.7,3.9-14,7.4-17.3,19.5c-1,10.7,0,18.1-2.4,24.9
			c-1.9,6.3-2.9,12.2,0,16.6"/>
		<path id="path2383" class="st4" d="M470.3,253.4c15.9,3.9,21.2,8.8,19.8,15.1"/>
		<path id="path2385" class="st4" d="M568.3,396.8c2.9-4.9,2.9-9.2,2.9-14.1c4.9-7.8,30.9,2.9,34.2-19"/>
		<path id="path2387" class="st4" d="M568.8,362.7c2.4,5.4,2.9,12.2,2.4,20"/>
		<path id="path2389" class="st4" d="M464.5,274.4c2.9,4.4,4.3,8.8,5.3,12.7"/>
		<path id="path2391" class="st4" d="M599.2,418.3c7.7-11.7,7.7-27.8,21.8-32.7"/>
		<path id="path2393" class="st4" d="M580.8,408.1c1-2.9,2.4-5.4,3.9-7.4"/>
		<path id="path2395" class="st4" d="M605,345.6c-3.4-2-4.9-5.4-3.4-11.2"/>
		<path id="path2397" class="st4" d="M590.5,353.9c3.9-2.5,7.3-7.4,10.6-13.7"/>
		<path id="path2399" class="st4" d="M610.7,316.3c0.4,12.2,10.6,13.2,8.7,26.9"/>
		<path id="path2401" class="st4" d="M585.2,342.2c0.4-13.2,7.3-21,15.5-27.8c4.9-5.4,10.6-8.3,7.3-25.4c1.9-10.3,14-21.5,3.4-28.8
			c-12.6-5.8-23.2-17.5-42.5-18.1"/>
		<path id="path2403" class="st4" d="M480.9,325.6c5.8-10.3,22.7-16.1,24.1-20c3.9-10.3,1-20.5,1.4-30.3
			c2.9-8.3,10.6-11.7,19.3-14.1c13.5-15.7,28-17.5,43-5.8"/>
		<path id="path2405" class="st4" d="M507,292.4c-1.9-2.5-4.3-3.9-6.7-5.4"/>
		<path id="path2407" class="st4" d="M504.6,307.1c4.3-2.5,8.2-3.4,12.6-2.9"/>
		<path id="path2409" class="st4" d="M461.1,241.7c24.6,2.5,55.5,6.3,57.4,22"/>
		<path id="path2411" class="st4" d="M520.9,245.1c-3.4-4.9-11.6-7.4-15.5-10.7"/>
		<path id="path2413" class="st4" d="M505.5,222.6c3.4,5.8,5.3,11.2,8.7,17.1"/>
		<path id="path2415" class="st4" d="M508.5,214.3c5.8,8.3,16.9,8.8,17.3,19.5"/>
		<path id="path2417" class="st4" d="M523.4,226.5c1-1.5,1.9-2.5,2.9-3.9"/>
		<path id="path2419" class="st4" d="M542.7,249c-5.8-14.1-18.3-13.7-24.6-17.1"/>
		<path id="path2421" class="st4" d="M535.4,233.8c7.7,2.9,11.6,7.8,11.6,14.1"/>
		<path id="path2423" class="st4" d="M523.9,217.7c9.6,2.5,17.9,6.3,24.6,13.2"/>
		<path id="path2425" class="st4" d="M541.3,236.8c2.4-6.3,13.5-7.8,27.5-8.3"/>
		<path id="path2427" class="st4" d="M564.5,260.7c4.3-11.2,28.9-6.3,43,4.4"/>
		<path id="path2429" class="st4" d="M519.1,272.9c7.7-3.9,16.9-4.9,26.1,0.5"/>
		<path id="path2431" class="st4" d="M552.9,253.4c-7.3,7.4-14,14.6-4.9,22.9c16.9,16.6,27.1,25.8,12.6,40.5"/>
		<path id="path2433" class="st4" d="M594.8,264.1c4.3,6.3,4.3,13.7,1.4,20.5"/>
		<path id="path2435" class="st4" d="M568.3,283.1c6.7,4.4,10.6,11.2,11.6,20.5c4.9,22.9-1.4,28.3-8.2,33.2"/>
		<path id="path2437" class="st4" d="M526.8,328c14.5,3.4,25.1,3.9,27.5-3.9"/>
		<path id="path2439" class="st4" d="M542.7,330.5c3.4,0.5,6.7,2,9.2,3.9"/>
		<path id="path2441" class="st4" d="M570.7,344.6c5.3-7.4,0-11.2-22.2-15.1"/>
		<path id="path2443" class="st4" d="M574.6,289c8.2-6.3,9.6-16.6,14.5-24.9"/>
		<path id="path2445" class="st4" d="M607.9,289.5c10.2-0.9,17.9,2.9,24.2,11.2"/>
		<path id="path2447" class="st4" d="M623.3,282.2c2.9,0.9,7.7,2.5,13.5,3.9"/>
		<path id="path2449" class="st4" d="M657.6,326.6c-6.7,2.5-11.1,7.8-13.5,15.1c-6.3,4.9-9.6,12.2-11.6,20"/>
		<path id="path2451" class="st4" d="M681.7,391c3.4,1.5,5.3,3.9,5.3,7.8"/>
		<path id="path2453" class="st4" d="M671.6,345.1c-1.9,2.5-4.3,3.4-7.7,3.9c-4.3,3.9-7.3,8.3-7.3,13.7c3.4,8.3,3.9,14.6,1.9,20"/>
		<path id="path2455" class="st4" d="M658.1,355.8c0-2.9-1-6.3-3.4-9.2"/>
		<path id="path2457" class="st4" d="M669.7,381.7c2.9-4.4,4.9-9.2,4.9-16.6c0.4-5.8,1.9-10.7,4.3-13.7"/>
		<path id="path2459" class="st4" d="M674.5,369.5c4.9,0.5,6.3,3.4,5.8,7.4c3.4,2.9,4.9,7.4,6.3,11.2"/>
		<path id="path2461" class="st4" d="M544.1,281.2c-4.3,8.8-12,17.1-13,26.4c-7.7,17.1-34.2,15.7-40.5,28.8"/>
		<path id="path2577" class="st5" d="M644.1,341.2c-1-14.6-23.6-37.6-37.2-33.2C618,300.2,647,319.2,644.1,341.2z"/>
		<path id="path2579" class="st5" d="M344.8,452c-1.9-13.7,4.3-25.8,14.5-36.1c11.1-8.8,8.7-21.5,13.5-25.4
			c6.7-13.2,24.6-21.5,49.7-25.8c7.7-9.2,17.9-14.1,31.9-13.7c9.6-8.3,18.3-16.1,36.2-16.1c1,4.4,2.4,8.8,4.3,12.7
			c-1.9-2.5-4.9-5.4-6.7-8.8c-15.9-1.5-27.1,7.8-33.3,15.7c-11.1-2.5-20.8,0.9-29.9,11.7c-25.6,4.9-44,12.7-50.2,25.8
			c-3.4,11.7-7.3,21.5-14.5,25.4c-8.2,8.8-15.5,21.5-10.6,40C348.2,455.9,346.7,453.5,344.8,452z"/>
		<path id="path2581" class="st5" d="M491,211.4c-4.3,2.9-2.4,10.3-5.3,15.7c-23.2,1.5-36.2,10.3-31.9,26.4
			c5.3,6.3,6.3,10.7,2.9,13.7c-6.7,3.9-9.2,14.1-11.6,25.4c-4.9,6.3-7.7,16.6-7.7,27.3c-0.4,9.2-14,14.6-12,22.4c1,0,1.4,0,1.9,0
			c0-3.4,1.9-6.8,5.3-9.8c4.3-2.5,6.3-8.3,7.7-16.1c-0.4-6.8,1.4-13.7,6.7-21c2.4-9.2,3.4-22.9,13-27.3c5.8-2.5,2.4-8.8-2.9-16.6
			c-6.3-15.7,10.6-19.5,28.5-22c7.3-2,5.3-13.7,10.2-17.5C494.4,211.4,492.5,211.4,491,211.4z"/>
		<path id="path2583" class="st4" d="M473.2,263.2c-4.3-1.5-8.2-0.9-11.6,2"/>
		<path id="path2599" class="st5" d="M653.2,307.6c-3.4,3.9-7.3,8.3-11.1,12.2c3.4,0,7.7-2.5,13.5-9.8L653.2,307.6z"/>
		<path id="path2601" class="st5" d="M642.6,320.2c-8.2,6.8-16.4,14.1-22.2,21.5c-4.3,5.8-4.9,14.1-3.4,23.4c1,6.8,1.9,13.7,3.4,20
			c1.9,0,3.4,0,5.3,0.5c7.7,7.8,27.1,6.3,32.8,9.2c3.4,4.9,6.3,8.3,8.2,7.4c3.4,3.4,5.8,7.4,7.3,11.2c-1.4-4.9,1.4-4.9-8.7-16.6
			c-4.3-4.4-14.5-6.8-30.4-9.2c-11.1-3.9-13.5-10.7-14.5-19.5c-1.9-8.3-2.9-16.1,0-24.4C626.7,335.8,634.4,328,642.6,320.2z"/>
		<path id="path2609" class="st5" d="M621.9,383.6c1.4,11.2,5.3,21.5,13.5,29.3c16.4,0.5,26.5,9.8,41,10.3l-3.4,3.4
			c-6.7,0.5-13-5.4-19.3-6.3c-5.3-2-15.9-2.5-20.8-4.9C625.7,405.1,621.4,394.4,621.9,383.6z"/>
	</g>
</g>
<g>
	<g>
		<g>
			<path class="st6" d="M157.7,339.5c-5.1,30.7-10.3,62.4-13.3,74.9c-2.1,9.2-10.2,41.3-36.7,141.4c-4.7,0.4-8.8,3.9-10.2,9.3
				c-0.8,3.3-0.4,6.6,1.1,9.6s4.2,5.1,7.2,6.1l18.6,5.9c2.3,0.7,4.7,0.8,7.1-0.1l0,0c3.7-1.3,6.5-4.4,7.7-8.8
				c1.3-5-0.6-10.3-4.3-13.4c4.8-19,30.8-121.1,36.7-141.4c3.6-12.4,14.4-42.3,24.7-71.2c8.6-23.8,16.5-46.3,20.2-57.7
				c7.9-25,20.4-67.4,20.6-67.9l21.8-84.2c4.4-17-5.1-25.6-10.9-27.7l-20.6-6.5c-0.4-0.1-4.4-1-9.1,0.6c-4.5,1.5-10.4,5.7-13.3,16.8
				l-21.7,84.1c-0.1,0.4-9.8,43.6-15.1,69.5C165.8,290.6,161.8,314.4,157.7,339.5z"/>
		</g>
	</g>
</g>
</svg>
