<?xml version="1.0" encoding="utf-8"?>
<!-- Generator: Adobe Illustrator 25.0.0, SVG Export Plug-In . SVG Version: 6.00 Build 0)  -->
<svg version="1.1" id="svg2160" xmlns:svg="http://www.w3.org/2000/svg"
	 xmlns="http://www.w3.org/2000/svg" xmlns:xlink="http://www.w3.org/1999/xlink" x="0px" y="0px" viewBox="0 0 1024 731"
	 style="enable-background:new 0 0 1024 731;" xml:space="preserve">
<style type="text/css">
	.st0{fill-rule:evenodd;clip-rule:evenodd;fill:#FFF0CD;stroke:#816647;stroke-width:1.997;stroke-miterlimit:3.9945;}
	.st1{fill-rule:evenodd;clip-rule:evenodd;fill:#D9BB7A;stroke:#816647;stroke-width:1.9973;stroke-miterlimit:3.9945;}
	.st2{fill:none;stroke:#816647;stroke-width:1.9973;stroke-miterlimit:3.9945;}
	.st3{fill-rule:evenodd;clip-rule:evenodd;fill:#FDD99B;stroke:#816647;stroke-width:3.9945;stroke-miterlimit:3.9945;}
	.st4{fill-rule:evenodd;clip-rule:evenodd;fill:#FDD99B;stroke:#816647;stroke-width:1.9973;stroke-miterlimit:3.9945;}
	.st5{fill-rule:evenodd;clip-rule:evenodd;fill:#816647;stroke:#816647;stroke-width:0.9986;stroke-miterlimit:3.9945;}
</style>
<g id="brain">
	<g id="brain-stem">
		<path id="medulla-oblongata" class="st0" d="M499.8,517.3c4.5,18.8,12.9,31.5,26.5,36.9c19.4,9.4,34.2,32.2,49.7,52.3
			c8.4-4.7,17.4-8.7,24.5-15.4l-73.6-91.2L499.8,517.3z"/>
		<g id="cerebellum">
			<path id="path2173" class="st1" d="M521.1,512c0,4,0.6,8,4.5,12.1c1.3,22.8,9.7,30.2,21.3,30.2c51.6,34.2,91,36.2,120.7,16.1
				c12.3-7.4,31.6-14.7,32.9-22.1c14.2-7.4,22.6-14.7,30.3-22.1c12.3-10.7,12.3-29.5,7.1-53C615.4,469.1,553.4,485.8,521.1,512z"/>
			<path id="path2463" class="st2" d="M663.1,479.1c-24.5,9.4-51.6,20.1-73,40.9"/>
			<path id="path2555" class="st2" d="M561.1,536.1c40.7,20.8,83.3,27.5,127.8,22.8"/>
			<path id="path2561" class="st2" d="M662.5,543.5c3.9,6,22,4,44.5,0.7"/>
			<path id="path2563" class="st2" d="M674.1,538.1c8.4,2.7,29.7-2.7,53.6-9.4"/>
			<path id="path2565" class="st2" d="M667,541.5c5.8,4,27.8,0.7,51.6-4.7"/>
			<path id="path2567" class="st2" d="M736.7,517.3c-26.5,12.1-46.5,18.8-56.8,17.4"/>
			<path id="path2569" class="st2" d="M687,530.1c14.2-0.7,32.9-8.7,51.6-16.8"/>
			<path id="path2571" class="st2" d="M696.1,524.7c14.2-3.4,29.1-9.4,43.9-16.1"/>
			<path id="path2573" class="st2" d="M740.6,503.3c-11.6,6-23.2,10.7-35.5,14.7"/>
			<path id="path2575" class="st2" d="M574.7,532.1c29.1,10.7,60,17.4,90.4,19.4"/>
			<path id="path2523" class="st2" d="M529.5,524.7c1.9,12.7,7.7,22.8,16.8,28.8"/>
			<path id="path2549" class="st2" d="M553.4,545.5C596,571.6,632.1,577,665.7,571"/>
			<path id="path2551" class="st2" d="M555.3,542.1c42,24.1,80.7,30.2,117.5,24.8"/>
			<path id="path2467" class="st2" d="M674.1,481.8c-22,7.4-45.2,16.8-67.1,28.8"/>
			<path id="path2553" class="st2" d="M557.9,538.8c45.2,22.8,85.9,28.8,124.6,24.1"/>
			<path id="path2557" class="st2" d="M568.2,533.4c43.3,21.5,85.2,22.1,127.2,20.8"/>
			<path id="path2559" class="st2" d="M654.7,546.8c4.5,6,20.7,6,45.8,2"/>
			<path id="path2525" class="st2" d="M546.3,553.5c5.8-6.7,11-14.7,16.8-20.1"/>
			<path id="path2547" class="st2" d="M550.8,547.5c26.5,20.8,62.6,28.2,102.7,30.8"/>
			<path id="path2545" class="st2" d="M548.9,551.5c22,16.1,54.9,27.5,93,30.8"/>
			<path id="path2465" class="st2" d="M593.4,512c7.7-6,15.5-12.1,23.2-18.1"/>
			<path id="path2497" class="st2" d="M567.6,533.4c9-8,12.3-18.8,11.6-32.8"/>
			<path id="path2529" class="st2" d="M602.4,532.1c20.7,3.4,40.7,6.7,61.3,10.7"/>
			<path id="path2527" class="st2" d="M726.4,498.6c-18.1,19.4-42,35.5-71.7,48.3c-25.2-2-50.4-10.7-75.5-16.1"/>
			<path id="path2521" class="st2" d="M538.5,525.4c-1.3,9.4,1.3,18.8,9,24.8"/>
			<path id="path2517" class="st2" d="M527.5,524L525,512"/>
			<path id="path2515" class="st2" d="M531.4,524c-2.6-4.7-2.6-9.4-1.9-14.1"/>
			<path id="path2513" class="st2" d="M536.6,524.7c-1.3-6-1.9-12.1-1.9-18.1"/>
			<path id="path2511" class="st2" d="M539.2,525.4l2.6-23.5"/>
			<path id="path2519" class="st2" d="M545,526.7c-1.3,7.4,1.9,13.4,7.7,18.8"/>
			<path id="path2531" class="st2" d="M672.8,538.1c-18.7-3.4-36.8-6.7-54.9-9.4"/>
			<path id="path2533" class="st2" d="M634.7,524.7c16.1,2.7,29.7,4.7,45.2,9.4"/>
			<path id="path2535" class="st2" d="M647,521.4c14.2,0,27.8,3.4,40,8.7"/>
			<path id="path2509" class="st2" d="M543,526.7c0.6-8,2.6-15.4,4.5-22.8"/>
			<path id="path2537" class="st2" d="M665.1,516.7c9.7,1.3,20,4,29.7,8.7"/>
			<path id="path2507" class="st2" d="M546.3,527.4c3.2-7.4,4.5-16.1,7.1-22.8"/>
			<path id="path2501" class="st2" d="M557.2,532.8c6.5-8.7,11.6-18.8,14.2-30.2"/>
			<path id="path2499" class="st2" d="M563.1,532.8c6.5-8.7,11-18.8,11.6-30.8"/>
			<path id="path2503" class="st2" d="M552.7,531.4l14.8-28.2"/>
			<path id="path2505" class="st2" d="M548.9,530.1c3.9-8.7,6.5-18.8,11.6-25.5"/>
			<path id="path2539" class="st2" d="M702.5,520c-5.8-0.7-12.9,0-19.4,0"/>
			<path id="path2541" class="st2" d="M709.6,514c-12.9,2.7-24.5,2.7-34.2,0"/>
			<path id="path2543" class="st2" d="M684.4,511.3c5.8,1.3,18.1,0,30.3-2c9-2.7,17.4-6,25.8-10.1"/>
			<path id="path2495" class="st2" d="M575.3,532.1c5.8-8,9-18.8,10.3-31.5"/>
			<path id="path2493" class="st2" d="M581.1,530.1c5.8-10.1,8.4-19.4,9.7-29.5"/>
			<path id="path2491" class="st2" d="M597.3,499.2c-7.7,34.9-25.8,37.5-46.5,31.5c-8.4-6.7-16.8-6.7-25.2-6.7"/>
			<path id="path2471" class="st2" d="M739.3,479.8c-28.4,9.4-144,51.6-156.2,51.6 M582.4,528.7c48.4-20.8,100.1-36.9,149.1-51.6"/>
			<path id="path2469" class="st2" d="M689,482.5c-33.6,11.4-70.4,27.5-103.3,43.6"/>
			<path id="path2473" class="st2" d="M740.6,493.9c-29.7,11.4-127.8,37.5-151.1,40.2c51-17.4,100.7-31.5,150.4-47.6"/>
		</g>
	</g>
	<g id="cerebrum">
		<path id="path2179" class="st3" d="M446.8,166.7c-20-1.3-42.6,2.7-62,14.1c-9.7,0.7-20,6-28.4,10.1c-18.7,1.3-34.9,8-49.1,19.4
			c-12.3,4-25.2,8.7-36.2,18.8c-20.7,12.7-34.2,27.5-40.7,45.6c-13.6,4.7-20.7,15.4-20.7,30.2c-9.7,8.7-16.1,20.1-17.4,34.9
			c-5.2,11.4-4.5,22.8-1.3,34.2c-0.6,4-3.2,8.7,0,12.7c-3.2,7.4-1.9,14.7,1.3,22.1c1.9,0,2.6,8.7,5.2,10.1
			c1.3,19.4,5.8,32.2,11.6,41.6c6.5,10.7,12.9,20.1,23.2,22.8c10.3,21.5,52.9,20.1,104.6,12.7c4.5,7.4,9,12.7,13.6,18.1
			c7.1,15.4,18.7,24.8,32.9,30.8c11.6,10.7,25.8,18.1,52.3,7.4c25.2-1.3,45.2-7.4,51.6-27.5c6.5-0.7,14.8-4,28.4-10.7
			c9.7-2,17.4-7.4,24.5-13.4c7.1,5.4,22,2.7,36.8,0c23.2-1.3,39.4-4.7,47.1-11.4c11-3.4,22-6.7,30.3-13.4c19.4,6.7,37.4,9.4,52.3,0
			c43.3,4.7,77.5-4.7,86.5-53c7.1-8,5.2-20.1,1.9-32.2c7.1-12.1-2.6-22.1-12.3-32.8c-1.3-14.1-7.7-24.1-17.4-32.8
			c1.3-9.4-1.9-17.4-14.8-24.1c-5.2-16.1-14.2-26.1-25.2-33.5c0-16.8-13.6-27.5-33.6-35.5c-15.5-19.4-34.9-33.5-57.5-43.6
			c-9-7.4-18.1-8-27.1-6.7c-10.3-13.4-28.4-16.8-52.9-12.1c-6.5-4.7-13.6-4.7-20-4.7c-14.8-1.3-27.8-2-38.7-2
			C477.2,158.7,461.7,161.4,446.8,166.7z"/>
		<path id="path2181" class="st4" d="M261.6,241.8c-7.1,6.7-7.1,11.4-2.6,14.1"/>
		<path id="path2183" class="st4" d="M280.3,233.1c31.6-22.8,54.9-24.8,71-13.4"/>
		<path id="path2185" class="st4" d="M329.3,252.5c12.3-9.4,17.4-27.5,27.1-40.2c12.9-20.1,37.4-3.4,52.9-4.7"/>
		<path id="path2187" class="st4" d="M248.6,273.3c-7.7,9.4,1.9,17.4,1.9,26.1"/>
		<path id="path2189" class="st4" d="M224.1,300.8c11-6,8.4-19.4,18.7-28.8c7.1-9.4,30.3-10.1,38.7-22.8c9-14.1,20.7-18.8,34.2-16.1
			"/>
		<path id="path2191" class="st4" d="M305.5,245.8c7.1-7.4,12.3-14.7,16.8-22.1"/>
		<path id="path2193" class="st4" d="M349.4,247.2c7.1-5.4,10.3-12.1,9.7-19.4"/>
		<path id="path2195" class="st4" d="M342.3,201.6c5.2,2,12.3,0.7,23.2-7.4"/>
		<path id="path2197" class="st4" d="M357.1,191.5c-2.6,3.4-4.5,6.7-4.5,9.4"/>
		<path id="path2199" class="st4" d="M385.5,180.8c1.3,2.7,3.2,4.7,5.2,4.7"/>
		<path id="path2201" class="st4" d="M403.6,172.8c-2.6,3.4-4.5,6-5.8,8.7"/>
		<path id="path2203" class="st4" d="M460.4,172.1c-5.2,0.7-10.3-0.7-15.5-5.4"/>
		<path id="path2205" class="st4" d="M469.4,212.3c-6.5-1.3-11.6-4-9-19.4c0.6-13.4-9.7-17.4-27.8-16.1c-16.8,1.3-32.3,2.7-39.4,6.7
			c-5.8,6-12.3,12.1-20,18.8"/>
		<path id="path2207" class="st4" d="M395.8,188.9c-4.5,4.7-5.8,10.1-4.5,15.4"/>
		<path id="path2209" class="st4" d="M443.6,184.2c-6.5,11.4-15.5,21.5-22,27.5c-13.6,14.7-22.6,30.8-8.4,48.3"/>
		<path id="path2211" class="st4" d="M405.5,242.5c-7.1,0.7-12.3-4-16.8-10.7c-3.2-6.7-12.3-6.7-16.1-19.4"/>
		<path id="path2213" class="st4" d="M458.5,215.7c-31.6,1.3-31,22.1-46.5,29.5"/>
		<path id="path2215" class="st4" d="M479.1,248.5c2.6-10.7-4.5-14.7-20.7-14.1c-7.7,0.7-15.5,0.7-21.3-2.7"/>
		<path id="path2217" class="st4" d="M463,251.2c-16.8,6-32.9,8-49.7,9.4c-7.7-0.7-18.7,25.5-20,34.2"/>
		<path id="path2219" class="st4" d="M196.3,346.4c4.5-7.4,9-11.4,14.8-13.4"/>
		<path id="path2221" class="st4" d="M211.2,337.7c-2.6-11.4,17.4-14.7,23.2-21.5c3.9-3.4,7.1-16.1,27.1-20.8
			c11-4,20-16.1,32.9-28.2c5.2-6,14.8-8.7,25.8-9.4"/>
		<path id="path2223" class="st4" d="M301.6,241.2c-5.8,8-10.3,18.1-3.9,22.8"/>
		<path id="path2225" class="st4" d="M274.5,287.4c-1.3,8-1.3,16.1-0.6,23.5"/>
		<path id="path2227" class="st4" d="M293.8,301.5c-4.5,7.4-12.3,16.1-9,26.1"/>
		<path id="path2229" class="st4" d="M278.3,324.9c11.6,3.4,18.1,15.4,26.5,18.8"/>
		<path id="path2231" class="st4" d="M284.2,318.2c-3.9-6.7-9.7-10.1-17.4-4c-11,6.7-21.3,14.1-32.3,20.8
			c-10.3,9.4-13.6,18.8-9,28.2"/>
		<path id="path2233" class="st4" d="M197,365.2c8.4-10.1,17.4-14.7,26.5-14.1"/>
		<path id="path2235" class="st4" d="M211.2,353.8c-1.9-2-5.2-2.7-9-3.4"/>
		<path id="path2237" class="st4" d="M231.9,343c15.5-8.7,23.2-6.7,25.8,2c6.5,36.2,16.8,42.9,26.5,52.3"/>
		<path id="path2239" class="st4" d="M266.1,329.6c-2.6,2.7-6.5,6.7-10.3,11.4"/>
		<path id="path2241" class="st4" d="M298.4,308.9c11.6-10.7,27.8-22.1-2.6-32.8"/>
		<path id="path2243" class="st4" d="M313.2,291.4c18.7-0.7,29.1,3.4,29.7,14.1c0.6,7.4-3.9,14.7-3.2,22.8"/>
		<path id="path2245" class="st4" d="M391.3,388c16.1-16.1,25.8-30.8,14.8-56.3c-3.9-12.7-8.4-24.8-12.9-36.9
			c-20,0-37.4,3.4-50.4,10.1"/>
		<path id="path2247" class="st4" d="M373.9,314.2c-9.7,9.4-30.3,15.4-29.1,32.2c0.6,31.5,11.6,38.2,18.7,45.6
			c2.6,2,5.2,10.1,11.6,18.1"/>
		<path id="path2249" class="st4" d="M330.6,229.1c-3.2,12.7-16.8,26.1-4.5,40.9c4.5-3.4,16.8-3.4,22.6-4.7
			c10.3-6.7,38.1,4.7,49.1-3.4"/>
		<path id="path2251" class="st4" d="M446.8,309.5c5.2-20.1-4.5-32.2-23.2-38.2"/>
		<path id="path2253" class="st4" d="M457.8,361.1c-9-1.3-28.4-15.4-25.8-29.5c-1.9-16.8-11.6-22.8-12.3-29.5
			c-1.3-3.4,3.2-11.4-0.6-16.1"/>
		<path id="path2255" class="st4" d="M364.2,392.7c5.2-8.7,5.2-16.8-7.7-26.1"/>
		<path id="path2257" class="st4" d="M322.2,313.5c0.6,9.4,1.3,18.1,5.2,27.5"/>
		<path id="path2259" class="st4" d="M344.8,346.4c-10.3-3.4-18.7-8-22-1.3c-3.2,2.7-12.3,6.7-9.7,18.8c-0.6,5.4-19.4,8-26.5,11.4"
			/>
		<path id="path2261" class="st4" d="M300.3,376.6c-5.8,4.7-3.9,14.1-6.5,20.8c1.3,14.1,16.8,16.8,32.9,18.8"/>
		<path id="path2263" class="st4" d="M227.3,374.6c3.9,4,11,7.4,26.5,9.4c6.5,1.3,5.8,6,20.7,10.7c5.8,0.7,12.9,1.3,19.4,2.7"/>
		<path id="path2265" class="st4" d="M237,354.4c-3.9,4-12.3,7.4-12.9,12.7c-1.3,5.4-5.2,10.7-8.4,16.1c-5.2,10.1-8.4,18.1-7.7,24.8
			c0.6,14.1,15.5,21.5,23.2,30.2"/>
		<path id="path2267" class="st4" d="M195.7,377.9c-1.9-1.3-3.2-2.7-4.5-4"/>
		<path id="path2269" class="st4" d="M210.6,371.9c-4.5,4.7-9,9.4-12.3,15.4c-2.6,7.4-1.9,13.4-3.2,26.1"/>
		<path id="path2271" class="st4" d="M198.3,388.6c0-2-1.3-3.4-2.6-4.7"/>
		<path id="path2273" class="st4" d="M198.3,418.8c1.3-4,7.1-8,3.9-12.7"/>
		<path id="path2275" class="st4" d="M210.6,461c1.3-2.7,0.6-6,1.9-7.4"/>
		<path id="path2277" class="st4" d="M232.5,483.2c3.9-6.7,4.5-10.7,1.9-11.4"/>
		<path id="path2279" class="st4" d="M239,474.4l-3.2-2"/>
		<path id="path2281" class="st4" d="M221.5,430.2c-6.5,13.4,0.6,22.8,18.1,28.8"/>
		<path id="path2283" class="st4" d="M219.6,393.3c14.2,8,29.1,24.8,42,29.5c14.2,5.4,34.9,24.1,47.1,15.4"/>
		<path id="path2285" class="st4" d="M326.8,428.2c-9.7,2-21.3,10.1-21.3,15.4c0.6,9.4,29.1,16.1,40.7,13.4"/>
		<path id="path2287" class="st4" d="M232.5,444.9c4.5,4,11,5.4,23.2-0.7c12.9-4,17.4,0.7,26.5,3.4"/>
		<path id="path2289" class="st4" d="M306.7,446.3c-15.5-1.3-23.2-0.7-28.4,4.7c-9,6-18.1,4.7-21.3,5.4c-3.9,1.3-14.8,12.7-30.3,4.7
			"/>
		<path id="path2291" class="st4" d="M264.8,495.9c21.3,1.3,43.9,0.7,67.1-2.7"/>
		<path id="path2293" class="st4" d="M289.3,469.1c-5.2-1.3-7.7-4-7.7-8.7c-0.6,9.4-5.8,11.4-9.7,15.4c-4.5,3.4-3.9,8.7-7.7,13.4"/>
		<path id="path2295" class="st4" d="M312.6,456.3c-12.9,0-25.2-0.7-34.2-5.4"/>
		<path id="path2297" class="st4" d="M305.5,456.3c1.9,11.4,16.8,12.7,24.5,16.8"/>
		<path id="path2299" class="st4" d="M300.3,466.4c1.3-2.7,5.2-2.7,7.7-4.7"/>
		<path id="path2301" class="st4" d="M318.4,464.4c3.2-2.7,7.1-4,9.7-7.4"/>
		<path id="path2303" class="st4" d="M337.1,465.1c-5.8-10.1,12.3-13.4,16.8-24.1"/>
		<path id="path2305" class="st4" d="M335.8,401.4c10.3,8.7,25.2,13.4,34.2,16.1"/>
		<path id="path2307" class="st4" d="M326.1,442.9c18.7,0,35.5-12.7,38.7-27.5c0.6-1.3,5.2-2,7.7-2.7"/>
		<path id="path2309" class="st4" d="M486.9,171.4c3.2-3.4,7.7-6.7,14.8-8.7"/>
		<path id="path2311" class="st4" d="M498.5,178.1c-16.8,0-31,2.7-38.1,15.4"/>
		<path id="path2313" class="st4" d="M481.1,190.2c3.9,2.7,6.5,5.4,6.5,8.7"/>
		<path id="path2315" class="st4" d="M666.4,373.2c2.6-30.8-54.9-39.6-83.3,11.4c-3.9,10.7-38.7,6.7-56.8,12.1
			c-16.1,6.7-32.3,16.1-48.4,26.1c-6.5,10.7-29.1-6.7-42-5.4c-42,4.7-42.6,69.7-1.3,80.4"/>
		<path id="path2317" class="st4" d="M511.4,348.4c0.6,13.4-13.6,39.6,7.7,51.6"/>
		<path id="path2319" class="st4" d="M472,376.6c7.1-2.7,9-14.1,13.6-20.1"/>
		<path id="path2321" class="st4" d="M457.8,393.3c-3.2,7.4,0.6,10.1,7.7,10.7"/>
		<path id="path2323" class="st4" d="M484.9,518.7c25.2-23.5,21.3-65.7-18.1-63c-13.6,1.3-23.2-2-29.7-8.7"/>
		<path id="path2325" class="st4" d="M504.3,446.3c9,16.8,18.1,12.7,29.1,12.7c19.4-0.7,30.3-20.8,16.8-42.2"/>
		<path id="path2327" class="st4" d="M517.9,459c-8.4,2.7-14.8,6.7-19.4,12.1"/>
		<path id="path2329" class="st4" d="M483.6,473.8c-7.7,2.7-15.5,11.4-24.5,17.4c-7.7,12.1-18.7,16.8-24.5,23.5
			c-6.5,10.1-9.7,30.8-46.5,19.4"/>
		<path id="path2331" class="st4" d="M484.3,525.4c-18.1,10.7-47.1,1.3-51,6"/>
		<path id="path2333" class="st4" d="M531.4,432.2c-6.5-2-10.3-11.4-13.6-16.1"/>
		<path id="path2335" class="st4" d="M418.4,404.7c14.2,8,26.5,6,38.7-4"/>
		<path id="path2337" class="st4" d="M435.2,409.4c-5.2,8-11,11.4-18.1,10.7c-7.7-1.3-18.7,7.4-31.6,18.1
			c-10.3,8.7-14.2,18.1-16.8,28.2c-1.9,12.1-3.9,17.4-6.5,22.1"/>
		<path id="path2339" class="st4" d="M376.5,425.5c-1.3,8,1.3,13.4,6.5,15.4"/>
		<path id="path2341" class="st4" d="M368.1,522.7c-6.5-2-14.2-8.7-19.4-10.7"/>
		<path id="path2343" class="st4" d="M395.2,492.5c-24.5,12.1-29.7,30.8-11,53"/>
		<path id="path2345" class="st4" d="M380.3,466.4c-1.3,8.7,4.5,14.7,10.3,20.1c5.2,2.7,5.2,10.1,6.5,12.1c7.7,11.4,9,18.8,9.7,25.5
			"/>
		<path id="path2347" class="st4" d="M559.8,369.2c9-10.7,25.2-2,37.4-3.4"/>
		<path id="path2349" class="st4" d="M528.2,379.2c7.7-6.7,11-15.4,8.4-27.5"/>
		<path id="path2351" class="st4" d="M543.7,373.9c-2.6-2-5.2-4-7.1-6.7"/>
		<path id="path2353" class="st4" d="M540.5,500.6c-2.6-6.7-0.6-13.4,5.8-19.4"/>
		<path id="path2355" class="st4" d="M528.2,496.6c1.9-3.4,8.4-4,12.3-6"/>
		<path id="path2357" class="st4" d="M577.9,470.4c-1.9,12.7,6.5,18.8,24.5,19.4"/>
		<path id="path2359" class="st4" d="M572.1,491.2c3.2-13.4-5.2-26.1-22-38.9"/>
		<path id="path2361" class="st4" d="M572.7,483.2c1.9-1.3,3.9-2.7,5.8-4"/>
		<path id="path2363" class="st4" d="M606.3,442.3c-9.7-2-17.4-6-17.4-16.8c-1.9-9.4-13.6-18.8-8.4-37.5"/>
		<path id="path2365" class="st4" d="M560.5,451c7.7,8,23.2-2,37.4-2c34.9-1.3,43.9,18.1,27.1,39.6"/>
		<path id="path2367" class="st4" d="M632.8,472.4c16.8-0.7,28.4-7.4,35.5-21.5"/>
		<path id="path2369" class="st4" d="M654.7,476.4l-5.8-6.7"/>
		<path id="path2371" class="st4" d="M680.6,468.4c10.3,0,19.4,2,26.5,8"/>
		<path id="path2373" class="st4" d="M701.2,464.4c-3.2,2-6.5,3.4-9.7,4.7"/>
		<path id="path2375" class="st4" d="M718,469.1c-1.9-11.4,5.2-16.8,5.8-23.5"/>
		<path id="path2377" class="st4" d="M601.1,399.4c5.2,4.7,11.6,8.7,10.3,14.1c1.9,11.4,15.5,12.7,23.2,14.1
			c15.5,6.7,29.7,14.1,21.3,27.5"/>
		<path id="path2379" class="st4" d="M519.8,337c-8.4-2.7-16.1-8-23.9-17.4"/>
		<path id="path2381" class="st4" d="M545,231.1c-5.8,4-12.3,12.1-21.3,18.1c-9,5.4-18.7,10.1-23.2,26.8c-1.3,14.7,0,24.8-3.2,34.2
			c-2.6,8.7-3.9,16.8,0,22.8"/>
		<path id="path2383" class="st4" d="M503.7,223.1c21.3,5.4,28.4,12.1,26.5,20.8"/>
		<path id="path2385" class="st4" d="M634.7,420.1c3.9-6.7,3.9-12.7,3.9-19.4c6.5-10.7,41.3,4,45.8-26.1"/>
		<path id="path2387" class="st4" d="M635.4,373.2c3.2,7.4,3.9,16.8,3.2,27.5"/>
		<path id="path2389" class="st4" d="M495.9,251.9c3.9,6,5.8,12.1,7.1,17.4"/>
		<path id="path2391" class="st4" d="M676,449.6c10.3-16.1,10.3-38.2,29.1-44.9"/>
		<path id="path2393" class="st4" d="M651.5,435.6c1.3-4,3.2-7.4,5.2-10.1"/>
		<path id="path2395" class="st4" d="M683.8,349.7c-4.5-2.7-6.5-7.4-4.5-15.4"/>
		<path id="path2397" class="st4" d="M664.4,361.1c5.2-3.4,9.7-10.1,14.2-18.8"/>
		<path id="path2399" class="st4" d="M691.5,309.5c0.6,16.8,14.2,18.1,11.6,36.9"/>
		<path id="path2401" class="st4" d="M657.3,345.1c0.6-18.1,9.7-28.8,20.7-38.2c6.5-7.4,14.2-11.4,9.7-34.9
			c2.6-14.1,18.7-29.5,4.5-39.6c-16.8-8-31-24.1-56.8-24.8"/>
		<path id="path2403" class="st4" d="M517.9,322.3c7.7-14.1,30.3-22.1,32.3-27.5c5.2-14.1,1.3-28.2,1.9-41.6
			c3.9-11.4,14.2-16.1,25.8-19.4c18.1-21.5,37.4-24.1,57.5-8"/>
		<path id="path2405" class="st4" d="M552.7,276.7c-2.6-3.4-5.8-5.4-9-7.4"/>
		<path id="path2407" class="st4" d="M549.5,296.8c5.8-3.4,11-4.7,16.8-4"/>
		<path id="path2409" class="st4" d="M491.4,207c32.9,3.4,74.2,8.7,76.8,30.2"/>
		<path id="path2411" class="st4" d="M571.4,211.7c-4.5-6.7-15.5-10.1-20.7-14.7"/>
		<path id="path2413" class="st4" d="M550.8,180.8c4.5,8,7.1,15.4,11.6,23.5"/>
		<path id="path2415" class="st4" d="M554.7,169.4c7.7,11.4,22.6,12.1,23.2,26.8"/>
		<path id="path2417" class="st4" d="M574.7,186.2c1.3-2,2.6-3.4,3.9-5.4"/>
		<path id="path2419" class="st4" d="M600.5,217c-7.7-19.4-24.5-18.8-32.9-23.5"/>
		<path id="path2421" class="st4" d="M590.8,196.2c10.3,4,15.5,10.7,15.5,19.4"/>
		<path id="path2423" class="st4" d="M575.3,174.1c12.9,3.4,23.9,8.7,32.9,18.1"/>
		<path id="path2425" class="st4" d="M598.6,200.3c3.2-8.7,18.1-10.7,36.8-11.4"/>
		<path id="path2427" class="st4" d="M629.6,233.1c5.8-15.4,38.7-8.7,57.5,6"/>
		<path id="path2429" class="st4" d="M568.9,249.9c10.3-5.4,22.6-6.7,34.9,0.7"/>
		<path id="path2431" class="st4" d="M614.1,223.1c-9.7,10.1-18.7,20.1-6.5,31.5c22.6,22.8,36.2,35.5,16.8,55.6"/>
		<path id="path2433" class="st4" d="M670.2,237.8c5.8,8.7,5.8,18.8,1.9,28.2"/>
		<path id="path2435" class="st4" d="M634.7,263.9c9,6,14.2,15.4,15.5,28.2c6.5,31.5-1.9,38.9-11,45.6"/>
		<path id="path2437" class="st4" d="M579.2,325.6c19.4,4.7,33.6,5.4,36.8-5.4"/>
		<path id="path2439" class="st4" d="M600.5,329c4.5,0.7,9,2.7,12.3,5.4"/>
		<path id="path2441" class="st4" d="M637.9,348.4c7.1-10.1,0-15.4-29.7-20.8"/>
		<path id="path2443" class="st4" d="M643.1,272c11-8.7,12.9-22.8,19.4-34.2"/>
		<path id="path2445" class="st4" d="M687.7,272.7c13.6-1.3,23.9,4,32.3,15.4"/>
		<path id="path2447" class="st4" d="M708.3,262.6c3.9,1.3,10.3,3.4,18.1,5.4"/>
		<path id="path2449" class="st4" d="M754.2,323.6c-9,3.4-14.8,10.7-18.1,20.8c-8.4,6.7-12.9,16.8-15.5,27.5"/>
		<path id="path2451" class="st4" d="M786.4,412.1c4.5,2,7.1,5.4,7.1,10.7"/>
		<path id="path2453" class="st4" d="M772.9,349.1c-2.6,3.4-5.8,4.7-10.3,5.4c-5.8,5.4-9.7,11.4-9.7,18.8
			c4.5,11.4,5.2,20.1,2.6,27.5"/>
		<path id="path2455" class="st4" d="M754.8,363.8c0-4-1.3-8.7-4.5-12.7"/>
		<path id="path2457" class="st4" d="M770.3,399.4c3.9-6,6.5-12.7,6.5-22.8c0.6-8,2.6-14.7,5.8-18.8"/>
		<path id="path2459" class="st4" d="M776.8,382.6c6.5,0.7,8.4,4.7,7.7,10.1c4.5,4,6.5,10.1,8.4,15.4"/>
		<path id="path2461" class="st4" d="M602.4,261.3c-5.8,12.1-16.1,23.5-17.4,36.2c-10.3,23.5-45.8,21.5-54.2,39.6"/>
		<path id="path2577" class="st5" d="M736.1,343.7c-1.3-20.1-31.6-51.6-49.7-45.6C701.2,287.4,740,313.5,736.1,343.7z"/>
		<path id="path2579" class="st5" d="M335.8,495.9c-2.6-18.8,5.8-35.5,19.4-49.6c14.8-12.1,11.6-29.5,18.1-34.9
			c9-18.1,32.9-29.5,66.5-35.5c10.3-12.7,23.9-19.4,42.6-18.8c12.9-11.4,24.5-22.1,48.4-22.1c1.3,6,3.2,12.1,5.8,17.4
			c-2.6-3.4-6.5-7.4-9-12.1c-21.3-2-36.2,10.7-44.5,21.5c-14.8-3.4-27.8,1.3-40,16.1c-34.2,6.7-58.8,17.4-67.1,35.5
			c-4.5,16.1-9.7,29.5-19.4,34.9c-11,12.1-20.7,29.5-14.2,55C340.3,501.3,338.4,497.9,335.8,495.9z"/>
		<path id="path2581" class="st5" d="M531.4,165.4c-5.8,4-3.2,14.1-7.1,21.5c-31,2-48.4,14.1-42.6,36.2c7.1,8.7,8.4,14.7,3.9,18.8
			c-9,5.4-12.3,19.4-15.5,34.9c-6.5,8.7-10.3,22.8-10.3,37.5c-0.6,12.7-18.7,20.1-16.1,30.8c1.3,0,1.9,0,2.6,0
			c0-4.7,2.6-9.4,7.1-13.4c5.8-3.4,8.4-11.4,10.3-22.1c-0.6-9.4,1.9-18.8,9-28.8c3.2-12.7,4.5-31.5,17.4-37.5
			c7.7-3.4,3.2-12.1-3.9-22.8c-8.4-21.5,14.2-26.8,38.1-30.2c9.7-2.7,7.1-18.8,13.6-24.1C535.9,165.4,533.4,165.4,531.4,165.4z"/>
		<path id="path2583" class="st4" d="M507.5,236.5c-5.8-2-11-1.3-15.5,2.7"/>
		<path id="path2599" class="st5" d="M748.3,297.5c-4.5,5.4-9.7,11.4-14.8,16.8c4.5,0,10.3-3.4,18.1-13.4L748.3,297.5z"/>
		<path id="path2601" class="st5" d="M734.1,314.9c-11,9.4-22,19.4-29.7,29.5c-5.8,8-6.5,19.4-4.5,32.2c1.3,9.4,2.6,18.8,4.5,27.5
			c2.6,0,4.5,0,7.1,0.7c10.3,10.7,36.2,8.7,43.9,12.7c4.5,6.7,8.4,11.4,11,10.1c4.5,4.7,7.7,10.1,9.7,15.4
			c-1.9-6.7,1.9-6.7-11.6-22.8c-5.8-6-19.4-9.4-40.7-12.7c-14.8-5.4-18.1-14.7-19.4-26.8c-2.6-11.4-3.9-22.1,0-33.5
			C712.8,336.3,723.2,325.6,734.1,314.9z"/>
		<path id="path2609" class="st5" d="M706.4,402c1.9,15.4,7.1,29.5,18.1,40.2c22,0.7,35.5,13.4,54.9,14.1l-4.5,4.7
			c-9,0.7-17.4-7.4-25.8-8.7c-7.1-2.7-21.3-3.4-27.8-6.7C711.5,431.5,705.7,416.8,706.4,402z"/>
	</g>
</g>
<g>
	<g>
		<g>
			<path d="M286.7,354.4c-15.5,33.8-31.5,68.7-38.9,82.3c-5.4,10-25,44.5-87.7,152c-5.9-0.9-12,2-15.4,7.8c-2,3.5-2.5,7.5-1.5,11.3
				c1,3.8,3.6,7,7,9l21.1,12c2.6,1.5,5.6,2.2,8.7,1.9l0,0c4.9-0.4,9.3-3.2,12.1-7.9c3.1-5.4,2.4-12-1.3-16.6
				c11.7-20.5,74.4-130.4,87.8-152c8.1-13.2,30.4-44.5,51.8-74.8c17.7-24.9,34.3-48.5,42.3-60.6c17.3-26.5,45.4-71.6,45.8-72.2
				l52.2-90.5c10.6-18.3,1.5-30.8-5-34.9l-23.4-13.3c-0.5-0.2-5.1-2.4-11.3-1.9c-6,0.5-14.5,3.6-21.4,15.5L357.5,212
				c-0.2,0.5-25.2,47.3-39.5,75.6C311.4,300.5,299.4,326.7,286.7,354.4z"/>
		</g>
	</g>
	<g>
	</g>
	<g>
	</g>
	<g>
	</g>
	<g>
	</g>
	<g>
	</g>
	<g>
	</g>
	<g>
	</g>
	<g>
	</g>
	<g>
	</g>
	<g>
	</g>
	<g>
	</g>
	<g>
	</g>
	<g>
	</g>
	<g>
	</g>
	<g>
	</g>
</g>
</svg>
