<?xml version="1.0" encoding="utf-8"?>
<!-- Generator: Adobe Illustrator 22.0.1, SVG Export Plug-In . SVG Version: 6.00 Build 0)  -->
<svg version="1.1" id="Livello_1" xmlns="http://www.w3.org/2000/svg" xmlns:xlink="http://www.w3.org/1999/xlink" x="0px" y="0px"
	 viewBox="0 0 306.1 274.3" style="enable-background:new 0 0 306.1 274.3;" xml:space="preserve">
<style type="text/css">
	.st0{stroke:#000000;stroke-miterlimit:10;}
</style>
<title>Logo Bianco</title>
<g id="Leone">
	<path class="st0" d="M42.2,40.6C-24.2,112,14.4,270,129,271.1c-16.8-13.3-29.5-27.1-35.2-42c10,3.3,19.4,4.4,28.1,2.9
		c-14.2-11-23-20.4-24.3-27.3c10.6,3.9,19.4,5.4,26.1,4.5c-16-15-28.6-29.5-36.8-43.5c10.3,7.5,19.7,12.6,28.2,14.7L42.2,40.6z"/>
	<path class="st0" d="M55.9,39.5l88.6,157.3c11.5,17.5,26.2,22.5,47,23.2l29.2-0.8c6-3.1,10.7-8.7,6.9-14.5c-4.4-8.2-8-7.9-13-4.8
		l-11.5,3.9c-14.1,0.9-17.7-3.2-23.5-10.1c-8-12.4-0.7-17.6,12.3-13.1l27.8,7.9c7.5,2.2,7.3-2.8,4.2-6.7c-6.2-8.4-7.6-19.2-6.4-31.1
		c2.2-7,14.1-9.5,17.9-10.9c8.4-3.8,6-9.2-0.4-18.3c-6.8-10.8-25.2-18.3-42.9-30.1l-1.4-36.3c-18.4-42.6-74.1-59.4-116-29.7
		l52.2,63.4l-2.8-29.3l20.7,24h-7.8c-12-0.9-1.4,22.4-1,41.4C113.2,86.5,85.6,56.9,55.9,39.5z"/>
	<path class="st0" d="M236.7,188c21.4,5.6,34.7-1.9,40.8-7.3s10.1-1.7,6.2,6.3c-13,18.5-36.9,26.2-46.7,11
		C231.2,190.1,233.9,187.2,236.7,188z"/>
	<path class="st0" d="M278.1,147.6c-8.1-1.9-14.5,5.5-12.2,16.7c6.4,13.3,22.4,13.7,31.3,3.1c6-7.8,0.6-18.3-9.5-28.9
		c-10.7-11.6-15.6-24.7-20.6-38.7c-9.5-34.6-26.8-63.4-90.5-83.8c-1,5.4,2,7,7.5,10.9c24.6,13.7,52.4,25.2,56.6,44.4
		s9.5,38.3,20.6,49.6c15.5,20,14,17.4,16.8,21.2C279.4,144,279.8,146,278.1,147.6z"/>
	<path class="st0" d="M180.5,13.7c31.5,3.6,53.4,13.3,74.4,41.4c0.2-15.9-5.6-30.2-26.4-40.7C210.2,7.4,194.5,8,180.5,13.7z"/>
	<path class="st0" d="M237.6,73.4l-45.8,5.3l0.2,4c27.3,10.1,38.8,10.1,43.9,5.1S239.8,80.1,237.6,73.4z"/>
</g>
</svg>
